# xmcd
#
# Track frame offsets: 
#        182
#        10880
#        33282
#        47380
#        69480
#        81362
#        98700
#        115117
#        135050
#        156755
#        178542
#        191800
#        204597
#        219325
#        243355
#        253360
#
# Disc length: 3583 seconds
#
# Revision: 9
# Processed by: cddbd v1.5.2PL0 Copyright (c) Steve Scherf et al.
# Submitted via: ExactAudioCopyFreeDBPlugin 1.0
#
DISCID=d00dfd10
DTITLE=Various Artist - born with the blues (volume three)
DYEAR=1996
DGENRE=Blues
TTITLE0=John Lee Hooker - She's Mine (Keep Your Hands To Yourself)
TTITLE1=Gary Moore - Bad News
TTITLE2=Eric Clapton and Jimmy Page - Draggin' My Tail
TTITLE3=Muddy Waters - What's The Matter With The Mill (Live)
TTITLE4=The All Stars And Jimmy Page - Steelin'
TTITLE5=Albert Lee - Crosstown Link
TTITLE6=The Paul Delay Band - All My Money Gone
TTITLE7=Earl Hooker - End Of The Blues
TTITLE8=Cary Bell and Buster Benton - Born With The Blues
TTITLE9=The Mighty House Rockers - Blue Light
TTITLE10=Muddy Waters - Blow Wind Blow (Live)
TTITLE11=John Lee Hooker - Hobo Blues
TTITLE12=Billy Boy Arnold and Tony McPhee - Don't Stay Out All Night
TTITLE13=Troyce Key and JJ Malone - (Medley) I Gotta New Car, Framed
TTITLE14=John Lee Hooker - I'm Leaving
TTITLE15=Sunnyland Slim - I Had It So Hard
EXTD=
EXTT0=
EXTT1=
EXTT2=
EXTT3=
EXTT4=
EXTT5=
EXTT6=
EXTT7=
EXTT8=
EXTT9=
EXTT10=
EXTT11=
EXTT12=
EXTT13=
EXTT14=
EXTT15=
PLAYORDER=
